<?xml version="1.0" standalone="no"?>
<!DOCTYPE svg PUBLIC "-//W3C//DTD SVG 20010904//EN"
 "http://www.w3.org/TR/2001/REC-SVG-20010904/DTD/svg10.dtd">
<svg version="1.0" xmlns="http://www.w3.org/2000/svg"
 width="600.000000pt" height="429.000000pt" viewBox="0 0 600.000000 429.000000"
 preserveAspectRatio="xMidYMid meet">

<g transform="translate(0.000000,429.000000) scale(0.100000,-0.100000)"
fill="#000000" stroke="none">
<path d="M4599 3785 c-3 -3 -39 -14 -80 -24 -41 -11 -114 -32 -164 -46 -49
-15 -148 -39 -220 -55 -71 -16 -168 -42 -215 -60 -47 -17 -110 -40 -140 -50
-167 -55 -530 -206 -585 -242 -24 -16 -84 -76 -132 -134 -48 -57 -90 -104 -93
-104 -4 0 -12 44 -17 99 -14 121 -34 163 -109 227 -31 27 -78 80 -104 119 -73
108 -76 109 -190 113 -124 5 -225 -15 -390 -77 -69 -26 -145 -51 -170 -55 -25
-4 -112 -22 -195 -40 -318 -71 -362 -80 -435 -79 -60 0 -90 6 -150 30 -87 35
-301 103 -323 103 -9 0 -24 11 -35 25 -24 31 -62 34 -62 5 0 -10 19 -41 43
-68 34 -38 147 -243 147 -267 0 -19 -195 10 -262 39 -50 21 -98 21 -98 0 0
-10 20 -42 45 -72 25 -30 48 -66 51 -81 11 -55 76 -210 109 -262 20 -30 47
-92 61 -139 27 -91 66 -196 150 -405 59 -148 85 -237 109 -380 10 -55 35 -152
57 -215 22 -66 51 -185 68 -280 17 -91 41 -210 54 -265 14 -55 27 -121 31
-147 3 -26 12 -49 20 -52 8 -3 53 -1 100 5 60 8 95 7 118 0 47 -16 152 13 312
86 72 33 159 71 195 85 36 14 89 35 118 46 37 14 50 17 42 7 -6 -8 -35 -22
-63 -31 -29 -9 -131 -53 -227 -97 -164 -74 -307 -124 -529 -182 -51 -14 -100
-25 -107 -25 -7 0 -16 16 -19 38 -4 20 -20 91 -36 157 -16 66 -34 158 -40 205
-5 47 -14 103 -19 125 -5 23 -21 113 -35 200 -36 227 -71 372 -120 510 -97
269 -114 314 -150 400 -21 50 -46 101 -56 115 -25 37 -64 135 -89 225 -12 44
-42 119 -66 167 -48 96 -51 108 -29 108 8 0 12 6 9 15 -7 17 -69 39 -90 31
-13 -5 -13 -10 4 -33 48 -71 103 -186 126 -268 34 -116 38 -126 112 -280 66
-136 136 -312 210 -530 44 -128 94 -378 154 -780 11 -71 31 -172 44 -225 13
-52 27 -115 31 -140 12 -74 20 -83 69 -77 23 3 98 24 167 45 68 22 140 42 159
45 19 4 -39 -18 -129 -48 -90 -30 -186 -56 -213 -57 l-50 -3 -19 50 c-13 34
-18 62 -14 86 4 21 2 45 -4 55 -30 53 -70 218 -80 327 -6 65 -16 139 -21 165
-6 26 -19 119 -30 206 -14 112 -29 185 -51 245 -17 47 -48 137 -70 199 -22 63
-61 157 -88 210 -26 53 -54 115 -61 137 -7 22 -32 79 -56 126 -83 167 -133
287 -144 348 -12 70 -44 151 -59 151 -20 0 -20 -19 -1 -75 11 -32 20 -66 20
-76 0 -29 28 -104 95 -254 82 -183 185 -493 225 -675 17 -80 40 -178 52 -218
11 -40 18 -76 15 -78 -6 -7 -46 115 -91 281 -61 222 -145 467 -180 525 -47 76
-71 127 -89 185 -8 28 -24 80 -35 116 -12 36 -26 96 -32 132 -14 79 -34 103
-51 61 -9 -23 -8 -38 4 -71 9 -23 13 -44 10 -47 -4 -3 -28 -6 -55 -6 -41 0
-54 -5 -85 -33 l-36 -34 21 -109 c11 -60 28 -154 36 -209 9 -55 25 -126 36
-157 11 -32 20 -68 20 -80 0 -12 13 -61 29 -108 40 -115 77 -252 92 -330 14
-79 68 -247 114 -355 19 -44 36 -89 38 -100 2 -11 9 -45 15 -75 6 -30 20 -99
31 -154 20 -94 23 -101 71 -152 48 -51 50 -55 50 -111 1 -100 18 -188 54 -266
27 -60 45 -84 93 -124 106 -88 124 -96 206 -91 94 7 214 47 527 173 140 57
289 116 330 131 41 14 131 53 199 85 68 32 129 59 135 59 6 0 27 10 46 23 19
13 69 38 110 56 41 18 82 36 90 41 129 75 169 98 190 108 14 6 35 19 46 27 21
15 23 14 62 -48 94 -149 244 -216 483 -217 110 0 117 1 160 28 24 16 57 44 73
63 30 35 86 144 86 167 0 18 -30 75 -44 84 -8 5 -8 10 0 18 8 8 43 8 125 0
193 -18 370 -57 629 -140 135 -43 272 -86 305 -95 117 -32 442 -149 546 -196
58 -26 153 -60 210 -74 96 -25 110 -26 184 -16 109 15 126 39 82 116 -22 40
-34 49 -148 118 l-63 38 42 25 c67 40 57 48 -65 60 -40 4 -73 10 -73 14 0 4
44 9 99 12 54 2 105 9 112 15 8 6 29 14 47 18 52 11 32 29 -41 37 -36 4 -90
17 -120 28 -52 19 -96 54 -85 65 3 3 43 16 89 29 97 26 107 40 55 80 -41 31
-178 211 -263 346 -163 258 -209 368 -247 585 -15 83 -34 173 -43 200 -18 56
-133 290 -169 345 -57 86 -137 374 -153 549 -11 115 -18 130 -54 114 l-24 -11
-6 131 c-3 73 -10 146 -15 162 -7 27 -13 30 -53 33 -25 2 -47 0 -50 -3z m63
-76 c10 -51 33 -575 34 -794 1 -160 4 -203 22 -270 29 -109 56 -177 102 -255
21 -36 50 -90 64 -120 14 -30 35 -71 46 -90 16 -28 20 -52 20 -131 0 -55 6
-116 15 -144 8 -27 13 -51 10 -53 -2 -2 -48 -6 -103 -9 -71 -4 -120 -1 -173
10 -236 52 -373 69 -514 65 l-140 -3 -105 -52 c-110 -55 -207 -117 -276 -177
-59 -52 -63 -44 -10 18 90 106 35 77 -83 -43 -96 -97 -85 -64 16 51 35 39 61
74 58 77 -3 3 -39 -28 -80 -69 -41 -41 -77 -71 -80 -68 -3 3 31 45 75 94 46
50 76 90 69 93 -6 2 -45 -32 -84 -75 -40 -44 -76 -76 -80 -73 -3 4 41 57 100
119 58 62 104 115 101 117 -7 8 -50 -19 -65 -41 -29 -41 -145 -156 -158 -156
-26 0 -13 31 22 51 19 12 35 25 35 30 0 5 34 45 75 88 41 43 75 84 75 92 -1
31 -58 203 -69 207 -6 2 -18 -2 -27 -8 -19 -16 -28 -7 -19 20 4 12 13 19 23
18 23 -4 19 25 -18 155 -17 56 -30 113 -30 127 0 14 -11 63 -24 110 -19 72
-27 87 -50 99 -29 13 -32 36 -11 84 6 14 2 17 -24 17 -35 0 -40 19 -19 65 14
31 28 32 28 3 0 -29 15 -54 24 -40 3 6 2 30 -4 54 -5 24 -16 88 -23 143 -15
121 -20 124 -117 65 -38 -23 -73 -39 -79 -36 -10 6 -6 53 9 113 13 50 -5 49
-65 -3 -64 -54 -72 -46 -17 16 64 75 90 97 134 113 24 8 66 24 93 35 28 11 93
37 145 57 52 20 145 56 205 80 61 23 166 60 235 82 131 42 678 183 695 179 6
-1 13 -18 17 -37z m-2035 -136 c21 -10 50 -41 79 -84 25 -38 64 -84 87 -102
122 -97 127 -113 127 -453 l0 -242 39 -128 c87 -288 105 -368 136 -599 11 -80
31 -163 60 -250 23 -71 41 -132 39 -134 -2 -2 -18 3 -36 10 -22 9 -71 14 -148
13 -105 -1 -124 -4 -225 -38 -60 -20 -128 -48 -150 -61 -22 -12 -144 -69 -270
-126 -187 -83 -239 -102 -280 -103 l-49 -1 -36 64 c-44 81 -134 179 -203 222
-153 94 -187 126 -187 176 0 14 5 11 19 -10 30 -46 57 -58 149 -67 48 -5 106
-16 130 -24 24 -9 82 -20 130 -26 48 -6 91 -15 95 -19 5 -5 -12 -58 -37 -119
-25 -61 -47 -125 -48 -144 -3 -32 -2 -33 34 -32 68 2 318 137 296 160 -3 3
-65 -25 -136 -62 -72 -38 -133 -66 -136 -63 -3 3 32 25 77 48 97 51 106 58 84
67 -13 4 -17 19 -17 54 0 53 -11 68 -30 45 -9 -10 -9 -15 -1 -15 6 0 11 -4 11
-10 0 -5 -10 -10 -23 -10 -13 0 -28 -5 -35 -12 -19 -19 -23 -4 -12 52 13 70 3
80 -86 90 -38 4 -112 17 -164 28 -52 11 -126 24 -164 29 l-68 8 -25 62 c-22
56 -27 62 -44 52 -16 -8 -19 -6 -19 9 0 24 -76 241 -123 354 -19 45 -41 101
-48 123 -15 50 -65 152 -111 227 -20 32 -41 72 -48 90 -6 18 -25 65 -40 103
-16 39 -43 115 -61 170 -18 55 -54 143 -80 195 -26 52 -64 133 -84 180 -20 47
-50 109 -67 138 -16 28 -25 52 -19 52 6 0 41 -20 78 -44 37 -24 86 -51 108
-60 56 -24 279 -49 319 -36 95 29 592 147 760 180 69 14 112 28 145 49 37 24
63 32 136 39 98 11 123 8 172 -15z m2137 -266 c4 -50 14 -117 23 -147 49 -179
82 -268 143 -385 128 -247 170 -378 205 -650 9 -66 23 -157 32 -203 9 -49 12
-87 7 -92 -5 -5 -28 2 -54 15 -42 23 -43 24 -12 18 43 -8 41 10 -5 43 -35 24
-36 26 -10 20 16 -4 27 -2 27 4 0 14 -58 49 -92 57 -16 3 -28 12 -28 19 0 10
11 12 45 7 28 -3 45 -2 45 5 0 5 -20 19 -45 31 -25 12 -45 23 -45 25 0 2 19 2
43 -1 40 -5 41 -5 25 12 -16 17 -16 19 0 31 15 11 14 14 -12 25 -28 13 -28 14
-7 19 29 7 29 22 1 36 -19 10 -20 13 -7 21 18 9 14 35 -23 140 -18 48 -29 64
-51 73 l-28 12 21 18 22 17 -28 15 c-18 10 -25 18 -17 22 17 11 13 24 -9 31
-11 3 -20 11 -20 16 0 5 9 9 20 9 36 0 21 19 -22 30 -88 21 -120 32 -115 36 3
3 31 1 62 -5 62 -12 88 -6 62 14 -16 12 -66 140 -87 225 -7 25 -19 56 -28 70
-11 16 -18 48 -19 90 -1 65 -15 119 -34 131 -5 3 -11 48 -12 100 -2 52 -8 103
-15 115 -8 16 -8 24 0 32 22 22 35 -9 42 -101z m-3881 -148 c56 -6 112 -18
124 -25 43 -27 138 -273 114 -297 -16 -16 -14 -84 3 -90 9 -4 12 -14 9 -26 -3
-12 -1 -21 6 -21 6 0 11 -11 11 -24 0 -16 7 -27 21 -31 17 -6 19 -9 8 -16 -12
-8 -11 -12 3 -22 16 -13 16 -15 0 -31 -16 -16 -16 -17 6 -22 22 -6 31 -24 12
-24 -5 0 -10 -4 -10 -10 0 -5 9 -10 20 -10 23 0 27 -18 5 -26 -20 -8 -19 -30
1 -38 9 -3 34 -6 57 -7 l42 -1 -50 -11 c-52 -13 -66 -30 -27 -35 26 -4 29 -17
5 -31 -16 -9 -16 -12 -3 -21 8 -5 31 -10 50 -11 36 -1 34 -3 -12 -13 -16 -4
-28 -13 -28 -21 0 -18 2 -18 67 -1 31 8 55 10 59 5 6 -10 -22 -22 -74 -34 -36
-7 -51 -30 -33 -48 6 -6 11 -20 12 -32 0 -11 13 -58 28 -105 l27 -85 40 0 c21
1 58 4 82 9 42 8 44 7 40 -15 -3 -23 -7 -24 -80 -24 -43 1 -78 -2 -78 -5 0 -3
6 -14 13 -24 10 -14 23 -17 63 -13 27 2 57 8 67 12 20 8 43 -7 33 -23 -3 -5
-27 -13 -52 -17 -59 -9 -94 -22 -94 -35 0 -14 68 -12 115 4 44 15 58 12 53
-12 -2 -10 -24 -20 -67 -28 -70 -15 -82 -21 -62 -33 8 -5 40 -3 74 5 38 9 64
11 70 5 16 -16 -1 -28 -49 -36 -61 -9 -94 -22 -94 -36 0 -12 22 -10 123 7 30
5 37 4 37 -9 0 -16 -4 -18 -77 -37 -24 -6 -43 -14 -43 -19 0 -4 12 -18 26 -32
25 -23 26 -23 20 -3 -5 18 -2 22 21 27 16 3 36 9 45 12 11 4 20 0 27 -14 10
-19 6 -22 -59 -41 -38 -11 -70 -25 -70 -31 0 -21 31 -20 97 4 38 13 76 21 84
18 28 -11 174 -104 217 -139 31 -25 54 -57 87 -126 25 -51 56 -103 68 -115 21
-19 28 -20 75 -11 29 5 62 16 75 25 13 8 61 29 106 45 45 17 105 42 132 56 28
14 53 23 55 21 8 -7 -70 -53 -131 -76 -105 -41 -146 -57 -338 -134 -247 -100
-424 -157 -513 -164 l-71 -6 -6 33 c-4 18 -7 43 -7 55 0 12 -11 56 -24 96 -13
41 -29 119 -36 174 -7 55 -13 102 -15 106 -2 3 -13 75 -25 160 -12 84 -25 158
-31 164 -6 5 -9 3 -9 -8 0 -9 -4 -17 -9 -17 -15 0 -39 87 -56 199 -17 113 -66
267 -127 400 -21 46 -38 89 -38 95 0 7 -16 50 -35 96 -20 47 -40 101 -44 120
-38 154 -63 249 -72 270 -6 14 -42 75 -80 136 -38 62 -69 114 -69 117 0 3 14
2 31 -3 17 -5 76 -14 132 -21z m2286 -41 c-7 -13 -14 -18 -16 -11 -3 7 1 22 8
35 7 13 14 18 16 11 3 -7 -1 -22 -8 -35z m201 -13 c0 -3 -7 -22 -15 -42 -19
-45 -19 -64 0 -39 19 25 21 22 29 -36 6 -37 4 -47 -6 -44 -7 2 -25 7 -39 10
-22 5 -28 13 -33 45 -3 22 -9 46 -12 54 -7 18 33 57 58 57 10 0 18 -2 18 -5z
m-338 -57 c-7 -7 -12 -8 -12 -2 0 6 3 14 7 17 3 4 9 5 12 2 2 -3 -1 -11 -7
-17z m60 0 c-7 -7 -12 -8 -12 -2 0 6 3 14 7 17 3 4 9 5 12 2 2 -3 -1 -11 -7
-17z m63 3 c-3 -6 -11 -11 -17 -11 -6 0 -6 6 2 15 14 17 26 13 15 -4z m77 -33
c-7 -7 -12 -22 -12 -35 0 -13 -4 -23 -10 -23 -5 0 -10 5 -10 10 0 14 -33 13
-48 -2 -9 -9 -12 -9 -12 0 0 14 68 61 90 61 11 1 11 -2 2 -11z m42 -100 c-8
-96 -11 -96 -30 2 -5 25 23 107 33 97 3 -3 2 -48 -3 -99z m-184 58 c0 -3 -4
-8 -10 -11 -5 -3 -10 -1 -10 4 0 6 5 11 10 11 6 0 10 -2 10 -4z m-70 -16 c0
-5 -5 -10 -11 -10 -5 0 -7 5 -4 10 3 6 8 10 11 10 2 0 4 -4 4 -10z m180 -39
c0 -11 -4 -23 -10 -26 -6 -4 -10 5 -10 19 0 14 5 26 10 26 6 0 10 -9 10 -19z
m-100 -10 c-11 -21 -29 -36 -35 -29 -3 2 2 14 11 26 19 28 39 30 24 3z m265
-8 c-4 -16 -11 -34 -17 -41 -15 -17 -28 2 -28 41 0 23 4 27 26 27 24 0 25 -3
19 -27z m-344 -1 c-12 -22 -41 -48 -41 -36 0 8 40 54 47 54 2 0 -1 -8 -6 -18z
m98 -51 c-28 -38 -126 -122 -111 -95 6 10 36 46 66 78 57 61 86 72 45 17z m92
0 c-12 -12 -21 -16 -21 -9 0 16 34 52 38 39 2 -5 -6 -19 -17 -30z m-2719 -38
c7 -16 27 -43 46 -62 26 -26 32 -39 27 -58 -3 -14 -1 -31 5 -38 8 -10 6 -15
-10 -20 -29 -9 -20 -28 18 -39 39 -11 43 -36 6 -36 -35 0 -26 -22 14 -32 42
-11 41 -26 0 -24 -51 2 -43 -27 10 -38 49 -10 56 -26 12 -26 -20 0 -30 -5 -30
-15 0 -8 9 -15 21 -15 11 0 30 -6 42 -12 21 -12 21 -13 -11 -18 -46 -7 -45
-24 3 -28 57 -5 66 -20 16 -28 -53 -9 -48 -24 15 -43 63 -19 63 -19 35 -40
l-24 -18 32 -5 c21 -3 31 0 31 9 0 14 16 18 23 6 3 -5 8 -28 12 -52 8 -47 6
-48 -47 -26 -13 5 -18 2 -18 -10 0 -22 28 -44 57 -45 42 0 32 -17 -13 -23 -25
-2 -48 -7 -51 -10 -3 -4 4 -27 16 -52 17 -37 28 -47 54 -52 l32 -7 -33 -8
c-26 -7 -32 -13 -27 -26 4 -9 11 -32 15 -50 11 -43 13 -45 43 -31 14 6 34 8
44 5 17 -7 17 -8 -1 -22 -11 -8 -28 -14 -38 -14 -36 0 -19 -29 19 -32 47 -4
53 -21 11 -33 -45 -14 -41 -27 12 -40 46 -11 45 -17 -3 -29 -39 -9 -29 -30 16
-34 36 -3 37 -5 52 -60 25 -90 44 -138 72 -179 21 -31 27 -55 34 -143 5 -58
17 -135 28 -170 11 -36 38 -134 61 -217 49 -185 67 -226 95 -217 11 3 74 15
140 26 117 19 225 48 275 74 39 21 283 125 305 131 17 4 16 2 -5 -16 -14 -11
-29 -21 -34 -21 -5 0 -68 -27 -140 -59 -139 -63 -286 -111 -342 -111 -33 0
-52 -14 -34 -25 5 -3 34 -12 63 -20 46 -12 62 -12 113 0 86 21 342 109 389
134 22 11 45 21 51 21 15 0 288 124 529 240 44 22 98 47 120 56 22 10 45 20
50 22 6 3 2 -4 -7 -14 -11 -12 -15 -28 -11 -42 6 -24 -12 -31 -21 -7 -3 8 -15
15 -27 15 -17 0 -20 -5 -17 -25 6 -27 -9 -35 -18 -10 -9 21 -24 8 -24 -21 0
-28 -8 -31 -25 -7 -15 20 -35 9 -35 -19 0 -20 -1 -20 -19 -4 -25 23 -40 14
-33 -21 l5 -28 -20 24 c-22 27 -48 20 -40 -11 4 -15 3 -17 -8 -8 -18 15 -35 5
-35 -21 0 -17 -3 -18 -21 -7 -17 11 -22 10 -32 -3 -7 -9 -18 -14 -24 -12 -12
4 -16 -2 -29 -46 -4 -11 -7 -11 -17 3 -12 17 -15 17 -50 0 -28 -13 -37 -24
-37 -42 0 -25 0 -25 -21 -6 -20 18 -21 18 -35 -1 -8 -10 -14 -25 -14 -33 0
-13 -3 -12 -18 1 -24 22 -32 21 -32 -2 0 -26 -18 -37 -26 -17 -9 23 -34 20
-34 -4 0 -22 -10 -26 -27 -9 -18 18 -35 0 -29 -30 6 -24 5 -25 -8 -7 -17 21
-46 15 -46 -9 0 -8 -4 -15 -10 -15 -5 0 -10 5 -10 10 0 6 -9 10 -20 10 -19 0
-24 -10 -21 -38 1 -6 -3 -12 -9 -12 -5 0 -10 5 -10 10 0 6 -7 10 -15 10 -8 0
-15 -8 -15 -17 0 -13 -3 -14 -12 -5 -17 17 -25 15 -31 -9 -5 -20 -7 -20 -22
-5 -29 29 -54 12 -35 -24 8 -16 8 -20 -4 -20 -7 0 -16 7 -20 15 -10 26 -36 18
-36 -12 0 -21 -3 -24 -12 -15 -20 20 -40 15 -33 -8 4 -11 2 -20 -4 -20 -6 0
-11 7 -11 15 0 19 -29 20 -36 0 -5 -12 -9 -12 -27 -1 -13 8 -36 12 -54 9 -31
-5 -33 -8 -34 -47 0 -22 -3 -34 -6 -26 -24 74 -51 80 -55 13 -4 -48 -7 -46
-24 12 -5 16 -18 31 -28 33 -16 4 -17 -1 -11 -46 6 -42 4 -52 -11 -60 -26 -15
-56 0 -139 68 -49 41 -78 74 -90 103 -10 23 -26 60 -36 82 -21 51 -40 185 -37
266 3 85 -9 104 -60 101 l-39 -3 -17 81 c-10 45 -15 92 -12 105 4 14 1 25 -7
28 -6 3 4 12 23 20 34 15 35 17 32 62 l-4 47 -39 -6 -39 -6 0 40 c0 30 -4 40
-16 40 -13 0 -14 3 -4 15 14 16 6 35 -16 35 -21 0 -17 18 6 30 28 15 25 30 -7
30 l-28 0 24 19 c27 21 21 41 -12 41 -22 0 -22 1 3 20 l25 19 -24 9 c-17 6
-21 11 -12 16 9 6 8 13 -5 27 -14 16 -15 23 -6 45 7 13 12 35 12 48 0 30 -36
76 -60 76 -26 0 -50 10 -50 22 0 6 16 7 40 3 31 -5 40 -4 40 7 0 24 -22 38
-59 38 -34 1 -35 1 -16 16 19 14 19 15 -3 20 -27 8 -28 16 -2 32 30 18 25 35
-7 28 l-28 -6 29 24 29 24 -33 7 -32 7 21 22 c28 30 27 36 -11 37 -31 0 -31 1
-11 11 39 19 37 38 -5 38 l-37 1 28 15 c29 16 28 34 -3 34 -29 0 -33 17 -5 24
34 9 31 25 -6 33 -21 4 -27 9 -20 16 15 15 14 27 -3 27 -24 0 -31 22 -12 36
20 14 14 34 -10 34 -21 0 -17 21 6 27 26 7 21 27 -8 31 -28 4 -28 18 -1 25 25
7 16 27 -11 27 -29 0 -33 17 -8 35 23 16 23 16 4 30 -11 8 -25 15 -30 15 -21
1 59 39 82 40 14 0 22 5 20 13 -6 17 -37 21 -63 7 -17 -9 -28 -9 -45 0 -21 11
-21 12 -3 26 15 12 16 15 3 23 -8 6 -15 24 -16 41 -1 24 4 34 20 40 32 13 36
12 48 -17z m2898 -26 c0 -1 -4 -17 -9 -35 -12 -41 -5 -62 20 -62 24 0 24 -3
-2 -86 -20 -65 -20 -71 -5 -119 9 -28 19 -72 22 -98 4 -26 11 -47 15 -47 5 0
9 -7 9 -16 0 -9 9 -44 19 -78 45 -143 45 -142 25 -169 -11 -14 -27 -30 -36
-36 -32 -20 -22 34 10 58 18 13 22 20 12 21 -9 0 -22 -6 -28 -12 -10 -10 -17
-10 -34 1 -20 13 -21 12 -14 -27 6 -43 -11 -71 -21 -33 -4 14 -13 21 -29 21
-24 0 -24 1 -8 25 22 33 13 40 -25 20 -27 -13 -32 -14 -37 -1 -3 8 2 28 10 45
22 42 6 46 -45 10 -41 -28 -40 -26 15 26 l59 57 14 -23 c13 -22 14 -18 10 45
-7 94 -19 104 -81 65 -70 -44 -72 -31 -5 53 29 35 16 54 -16 22 -32 -32 -52
-32 -31 1 16 24 16 25 -4 25 -28 0 -25 27 9 78 21 30 48 52 91 74 l62 31 -6
61 c-4 33 -10 71 -13 84 -4 18 -1 22 21 22 14 0 26 -1 26 -3z m-89 -63 c5 -6
7 -19 3 -28 -3 -9 1 -27 10 -41 10 -15 12 -26 6 -30 -14 -8 -28 33 -34 97 -3
29 -3 44 0 33 4 -11 10 -25 15 -31z m-221 33 c0 -2 -10 -12 -22 -23 l-23 -19
19 23 c18 21 26 27 26 19z m70 -6 c0 -12 -20 -25 -27 -18 -7 7 6 27 18 27 5 0
9 -4 9 -9z m107 -58 c-3 -10 -5 -2 -5 17 0 19 2 27 5 18 2 -10 2 -26 0 -35z
m-208 -42 c-18 -23 -37 -41 -42 -41 -9 0 -1 12 47 67 34 39 30 16 -5 -26z
m101 24 c-7 -9 -15 -13 -18 -10 -3 2 1 11 8 20 7 9 15 13 18 10 3 -2 -1 -11
-8 -20z m309 -72 c1 -7 -6 -13 -14 -13 -16 0 -19 17 -8 46 6 16 7 16 14 -2 4
-10 8 -25 8 -31z m-371 8 c-18 -26 -68 -65 -68 -54 0 14 70 87 76 80 3 -3 0
-15 -8 -26z m102 -40 c0 -25 -10 -51 -20 -51 -14 0 -20 31 -10 51 14 24 30 25
30 0z m-80 -1 c0 -13 -71 -92 -78 -86 -3 3 7 21 22 40 14 19 26 39 26 45 0 6
7 11 15 11 8 0 15 -4 15 -10z m311 -53 c-8 -8 -11 -5 -11 9 0 27 14 41 18 19
2 -9 -1 -22 -7 -28z m54 -17 c-4 -11 -13 -20 -21 -20 -11 0 -13 7 -8 28 4 15
9 31 12 36 8 15 24 -23 17 -44z m1352 34 c-3 -3 -12 -4 -19 -1 -8 3 -5 6 6 6
11 1 17 -2 13 -5z m-1697 -32 c0 -5 -10 -17 -21 -28 -12 -10 -30 -32 -40 -48
-15 -24 -19 -27 -24 -14 -4 11 7 30 32 56 38 40 53 50 53 34z m1791 -50 c-7
-2 -18 1 -23 6 -8 8 -4 9 13 5 13 -4 18 -8 10 -11z m-1453 -19 c-4 -22 -22
-20 -26 1 -2 10 3 16 13 16 10 0 15 -7 13 -17z m-330 -25 c-18 -26 -78 -74
-78 -62 0 17 61 84 77 84 14 0 14 -3 1 -22z m1737 12 c3 -5 -1 -10 -9 -10 -9
0 -16 5 -16 10 0 6 4 10 9 10 6 0 13 -4 16 -10z m-1365 -31 c0 -10 -7 -19 -15
-19 -16 0 -19 9 -9 34 8 20 24 11 24 -15z m1440 11 c8 -5 12 -11 9 -14 -3 -3
-14 1 -25 9 -21 16 -8 20 16 5z m-1799 -57 c-14 -27 -81 -88 -81 -75 0 7 16
30 36 52 38 41 62 54 45 23z m1794 -5 c6 -6 0 -8 -19 -6 -16 2 -31 9 -34 17
-3 10 2 11 19 6 13 -4 29 -12 34 -17z m-1455 -7 c0 -6 -4 -13 -10 -16 -5 -3
-10 1 -10 9 0 9 5 16 10 16 6 0 10 -4 10 -9z m35 -47 c-9 -7 -14 -18 -10 -24
4 -6 4 -18 0 -28 -5 -14 -7 -14 -15 -2 -10 16 -4 52 13 84 9 18 10 18 20 1 7
-14 6 -21 -8 -31z m1480 35 c11 -17 -1 -21 -15 -4 -8 9 -8 15 -2 15 6 0 14 -5
17 -11z m-1688 -16 c2 -6 -22 -30 -54 -52 -32 -22 -79 -59 -105 -82 -79 -68
-54 -23 37 68 80 80 112 98 122 66z m-147 -12 c0 -14 -50 -71 -62 -71 -5 0 5
18 22 40 33 41 40 47 40 31z m-1770 -50 c0 -14 -10 -18 -70 -26 -58 -8 -61 2
-7 22 40 14 77 16 77 4z m18 -69 c-4 -20 -83 -29 -108 -12 -23 15 1 26 61 28
42 1 50 -2 47 -16z m-434 -140 c60 -184 70 -227 101 -436 14 -99 28 -183 30
-186 2 -4 9 -58 15 -121 7 -74 21 -143 39 -199 16 -47 32 -108 36 -135 3 -28
13 -81 22 -118 17 -76 31 -87 102 -87 37 0 336 89 446 133 231 93 427 177 530
227 135 66 281 123 298 117 7 -2 -26 -18 -73 -36 -47 -18 -143 -60 -215 -93
-251 -116 -296 -135 -480 -211 -111 -45 -265 -98 -340 -116 -22 -5 -83 -21
-135 -35 -131 -35 -154 -34 -171 6 -10 24 -10 33 -1 36 18 6 15 31 -28 247
-23 110 -52 261 -66 335 -13 74 -33 176 -44 225 -21 96 -117 534 -125 573 -4
14 -2 21 4 18 5 -4 30 -68 55 -144z m2601 66 c8 -30 6 -32 -19 -22 -16 6 -22
45 -9 58 10 9 20 -5 28 -36z m-2145 22 c0 -11 -74 -33 -98 -28 -28 5 -9 23 25
23 17 0 35 3 39 8 11 10 34 9 34 -3z m1740 -3 c0 -2 -10 -12 -21 -23 -22 -19
-22 -19 -10 4 10 18 31 31 31 19z m80 -17 c0 -11 -7 -20 -15 -20 -8 0 -15 -4
-15 -9 0 -12 -59 -55 -66 -48 -10 9 29 59 61 78 37 23 35 23 35 -1z m-1782
-48 c3 -18 -1 -22 -25 -22 -15 0 -45 -3 -65 -6 -31 -5 -38 -4 -38 10 0 10 9
16 23 16 12 1 33 7 47 15 33 19 54 15 58 -13z m2076 -16 c-21 -15 -30 -14 -19
3 3 6 14 11 23 11 13 0 13 -2 -4 -14z m-49 -27 c0 -27 -29 -37 -55 -19 -13 9
-11 13 10 30 31 24 45 21 45 -11z m105 10 c0 -6 -4 -7 -10 -4 -5 3 -10 11 -10
16 0 6 5 7 10 4 6 -3 10 -11 10 -16z m-270 -15 c0 -8 -4 -12 -10 -9 -5 3 -10
10 -10 16 0 5 5 9 10 9 6 0 10 -7 10 -16z m-130 -29 c-13 -14 -26 -23 -28 -20
-3 3 5 16 18 30 13 14 26 23 28 20 3 -3 -5 -16 -18 -30z m364 20 c-6 -16 -24
-21 -24 -7 0 11 11 22 21 22 5 0 6 -7 3 -15z m-277 -17 c-3 -8 -6 -5 -6 6 -1
11 2 17 5 13 3 -3 4 -12 1 -19z m108 12 c-3 -5 -10 -10 -16 -10 -5 0 -9 5 -9
10 0 6 7 10 16 10 8 0 12 -4 9 -10z m1828 -82 c54 -118 138 -252 266 -428 66
-91 121 -169 121 -173 0 -17 -73 -37 -138 -37 -87 0 -307 56 -577 146 -110 36
-235 78 -277 92 -43 14 -78 30 -78 34 0 10 -5 11 235 -48 105 -26 226 -59 270
-74 44 -15 138 -42 209 -60 134 -34 195 -36 224 -7 13 13 11 21 -14 68 -16 30
-47 72 -70 94 -36 36 -91 121 -139 215 -17 34 -36 91 -56 175 -5 22 -12 48
-15 58 -12 40 8 12 39 -55z m-1729 15 c-13 -9 -21 -10 -28 -2 -8 7 -4 16 14
31 23 19 25 19 29 2 2 -10 -5 -24 -15 -31z m96 39 c0 -4 -9 -13 -20 -20 -22
-13 -27 -3 -8 16 14 14 28 16 28 4z m-326 -23 c-3 -5 -10 -7 -15 -3 -5 3 -7
10 -3 15 3 5 10 7 15 3 5 -3 7 -10 3 -15z m186 -54 c0 -13 -37 -31 -46 -23 -2
2 3 14 12 26 16 23 34 21 34 -3z m70 6 c0 -13 -29 -35 -37 -28 -7 8 15 37 28
37 5 0 9 -4 9 -9z m-230 -5 c0 -3 -4 -8 -10 -11 -5 -3 -10 -1 -10 4 0 6 5 11
10 11 6 0 10 -2 10 -4z m943 -13 c-24 -2 -62 -2 -85 0 -24 2 -5 4 42 4 47 0
66 -2 43 -4z m-1073 -24 c0 -5 -4 -9 -10 -9 -5 0 -10 7 -10 16 0 8 5 12 10 9
6 -3 10 -10 10 -16z m873 4 c-7 -2 -19 -2 -25 0 -7 3 -2 5 12 5 14 0 19 -2 13
-5z m482 -3 c17 -7 16 -9 -10 -9 -16 -1 -48 -4 -70 -7 -38 -5 -39 -4 -21 10
21 17 69 20 101 6z m-1055 -19 c0 -13 -29 -35 -37 -28 -7 8 15 37 28 37 5 0 9
-4 9 -9z m-165 -31 c-18 -20 -45 -27 -45 -12 0 7 37 28 54 31 5 0 1 -8 -9 -19z
m1372 4 c-3 -3 -12 -4 -19 -1 -8 3 -5 6 6 6 11 1 17 -2 13 -5z m508 -10 c8 -4
15 -13 15 -20 0 -8 11 -37 25 -64 29 -57 33 -85 7 -54 -26 32 -55 45 -191 80
-118 30 -124 31 -128 13 -4 -15 -11 -17 -32 -13 -33 8 -61 23 -43 24 6 0 12 9
12 20 0 11 6 20 13 20 6 0 73 -16 147 -35 74 -19 143 -35 153 -35 37 0 9 25
-41 39 -33 9 -52 19 -52 29 0 12 9 13 50 8 28 -4 57 -9 65 -12z m-1998 -16
c-3 -8 -6 -5 -6 6 -1 11 2 17 5 13 3 -3 4 -12 1 -19z m723 12 c-20 -13 -33
-13 -25 0 3 6 14 10 23 10 15 0 15 -2 2 -10z m433 -5 c53 0 87 -4 87 -10 0 -6
16 -9 38 -7 72 7 394 -99 446 -146 19 -18 30 -23 33 -14 7 20 53 13 128 -18
40 -17 73 -26 78 -21 14 14 -11 51 -36 51 -12 0 -60 14 -107 30 -47 17 -71 27
-55 24 64 -14 103 -23 175 -43 41 -11 90 -21 107 -21 26 0 36 -6 48 -30 20
-38 19 -60 -2 -60 -10 0 -83 14 -163 30 -80 16 -159 30 -176 30 -18 0 -60 8
-95 19 -35 10 -107 27 -159 36 -52 10 -120 26 -150 37 -83 29 -130 37 -312 52
-218 17 -255 11 -393 -58 -101 -51 -165 -96 -304 -214 -72 -62 -63 -37 12 34
100 94 245 201 331 244 62 32 90 40 135 41 31 0 81 7 111 14 31 7 72 10 95 7
22 -4 79 -7 128 -7z m487 6 c0 -5 -7 -12 -16 -15 -24 -9 -28 -7 -14 9 14 17
30 20 30 6z m-1460 -9 c0 -4 -9 -13 -20 -20 -22 -13 -27 -3 -8 16 14 14 28 16
28 4z m1325 -21 l60 -20 -50 6 c-27 3 -63 14 -80 25 -33 21 -25 20 70 -11z
m119 -37 c26 -9 45 -18 43 -21 -7 -7 -85 16 -92 27 -8 13 -7 13 49 -6z m-3851
-99 l6 -40 -13 30 c-8 17 -17 48 -20 70 l-6 40 14 -30 c7 -16 16 -48 19 -70z
m2477 85 c0 -5 -4 -10 -10 -10 -5 0 -10 5 -10 10 0 6 5 10 10 10 6 0 10 -4 10
-10z m1680 -32 c18 -6 11 -7 -23 -3 -27 3 -56 9 -65 15 -19 12 44 3 88 -12z
m-1684 -35 c-10 -10 -19 5 -10 18 6 11 8 11 12 0 2 -7 1 -15 -2 -18z m504 12
c-7 -8 -17 -15 -24 -15 -6 0 -36 -16 -67 -35 -32 -19 -72 -37 -91 -40 -22 -4
2 12 76 50 60 30 111 55 114 55 2 0 -1 -7 -8 -15z m389 -41 c139 -39 192 -56
188 -60 -3 -3 -31 2 -63 10 -33 8 -101 22 -152 31 -50 10 -95 21 -98 26 -8 14
64 10 125 -7z m-3304 -70 c7 -33 12 -60 10 -62 -4 -4 -21 52 -30 98 -12 57 5
27 20 -36z m2555 49 c0 -4 -58 -65 -130 -134 -71 -70 -130 -124 -130 -120 0
14 201 231 228 246 32 17 32 17 32 8z m985 -3 l20 -9 -20 0 c-11 0 -27 4 -35
9 -13 9 -13 10 0 9 8 0 24 -4 35 -9z m-1515 -20 c0 -5 -12 -10 -27 -10 -22 0
-25 2 -13 10 20 13 40 13 40 0z m327 -12 c-3 -8 -6 -5 -6 6 -1 11 2 17 5 13 3
-3 4 -12 1 -19z m788 1 c7 -7 5 -8 -8 -3 -9 3 -24 1 -32 -6 -13 -10 -19 -10
-34 4 -17 15 -19 15 -25 1 -4 -11 -13 -14 -24 -10 -11 3 -32 -1 -48 -10 -36
-19 -64 -19 -64 -1 0 22 97 46 165 41 32 -3 64 -10 70 -16z m675 0 c53 -10
132 -38 108 -39 -27 0 -141 31 -168 47 -15 9 -17 12 -5 7 11 -3 40 -10 65 -15z
m-1365 -8 c-3 -6 -11 -11 -17 -11 -6 0 -6 6 2 15 14 17 26 13 15 -4z m847 -11
c212 -41 425 -115 659 -227 80 -39 179 -80 220 -93 83 -25 219 -51 231 -44 15
10 8 24 -13 24 -30 0 -18 24 14 28 20 2 36 -6 63 -34 21 -20 62 -48 91 -61 30
-14 52 -27 49 -30 -2 -3 -54 3 -115 11 -117 18 -293 68 -495 143 -67 25 -155
55 -196 68 -41 12 -113 37 -160 54 -47 18 -128 45 -180 60 -80 23 -96 31 -98
49 -4 24 -17 29 -28 11 -8 -13 -53 -3 -76 18 -11 10 -18 12 -18 5 0 -17 -27
-15 -34 3 -3 8 -15 15 -26 15 -11 0 -20 5 -20 10 0 14 15 13 132 -10z m-1162
0 c0 -5 -2 -10 -4 -10 -3 0 -8 5 -11 10 -3 6 -1 10 4 10 6 0 11 -4 11 -10z
m-247 -7 c-7 -2 -19 -2 -25 0 -7 3 -2 5 12 5 14 0 19 -2 13 -5z m-77 -12 c-8
-12 -113 -44 -128 -38 -7 2 1 8 17 12 17 4 46 13 65 20 41 16 53 18 46 6z
m2219 -11 c18 -8 18 -9 -5 -8 -14 0 -38 4 -55 8 l-30 8 35 0 c19 0 44 -3 55
-8z m-1982 -30 c9 -9 -2 -10 -48 -4 -91 10 -113 25 -32 20 38 -2 74 -9 80 -16z
m247 -1 c0 -5 -4 -9 -10 -9 -5 0 -10 7 -10 16 0 8 5 12 10 9 6 -3 10 -10 10
-16z m-2316 -5 c3 -8 2 -12 -4 -9 -6 3 -10 10 -10 16 0 14 7 11 14 -7z m1859
9 c-7 -2 -19 -2 -25 0 -7 3 -2 5 12 5 14 0 19 -2 13 -5z m529 -15 c-7 -7 -12
-8 -12 -2 0 14 12 26 19 19 2 -3 -1 -11 -7 -17z m-1212 4 c0 -4 -15 -16 -32
-26 l-33 -18 30 26 c34 28 35 29 35 18z m1027 -55 c6 -53 -15 -125 -61 -210
-21 -39 -27 -60 -20 -65 6 -4 14 -23 18 -43 7 -38 48 -89 72 -89 19 0 17 20
-3 43 -17 20 -17 20 7 14 14 -4 34 -7 46 -7 14 0 20 -6 20 -20 -1 -10 4 -19 9
-19 6 0 9 6 7 13 -4 24 117 7 176 -26 59 -33 66 -31 124 29 25 26 38 49 40 73
l3 35 6 -33 c4 -22 0 -45 -12 -67 -19 -35 -12 -52 16 -41 8 3 15 2 15 -3 0
-16 -30 -33 -50 -28 -11 3 -23 1 -26 -4 -3 -5 -18 -9 -35 -9 -16 0 -29 -4 -29
-8 0 -10 -71 -9 -87 1 -7 4 -16 0 -22 -10 -10 -17 -12 -17 -25 0 -10 13 -21
17 -35 12 -13 -4 -23 0 -30 12 -8 15 -13 16 -30 6 -14 -9 -22 -9 -27 -2 -3 6
-17 8 -31 4 -35 -8 -111 30 -119 60 -4 15 -11 22 -20 18 -17 -6 -19 51 -3 93
5 16 7 39 4 52 -7 27 -58 52 -105 52 -16 0 -30 5 -30 10 0 6 13 10 29 10 39 0
50 19 22 41 -26 21 -20 26 49 35 l53 7 -6 -29 c-4 -16 -9 -39 -13 -51 -5 -17
-2 -23 9 -23 9 0 29 27 48 65 28 57 31 72 26 117 -5 37 -3 48 4 41 6 -6 14
-31 16 -56z m895 41 c-7 -7 -12 -8 -12 -2 0 14 12 26 19 19 2 -3 -1 -11 -7
-17z m-1327 3 c-14 -13 -247 -92 -253 -86 -5 5 60 35 77 35 6 0 15 9 21 20 8
15 22 20 58 21 26 1 58 5 72 9 35 11 35 11 25 1z m965 -22 c-22 -18 -36 -25
-39 -17 -5 14 35 48 58 48 11 -1 5 -10 -19 -31z m1500 17 c0 -3 -4 -8 -10 -11
-5 -3 -10 -1 -10 4 0 6 5 11 10 11 6 0 10 -2 10 -4z m-2245 -15 c14 -6 -2 -10
-50 -13 -47 -3 -92 -14 -135 -32 -173 -75 -391 -159 -396 -153 -6 5 199 87
218 87 19 0 55 27 47 35 -4 3 -25 2 -48 -4 -22 -5 -39 -5 -36 -1 3 5 36 15 74
24 37 9 92 27 122 41 41 19 70 25 119 24 36 0 74 -4 85 -8z m282 -38 c-3 -10
-5 -2 -5 17 0 19 2 27 5 18 2 -10 2 -26 0 -35z m2023 37 c0 -5 -2 -10 -4 -10
-3 0 -8 5 -11 10 -3 6 -1 10 4 10 6 0 11 -4 11 -10z m90 -10 c0 -5 -2 -10 -4
-10 -3 0 -8 5 -11 10 -3 6 -1 10 4 10 6 0 11 -4 11 -10z m-1140 -10 c0 -5 -5
-10 -11 -10 -5 0 -7 5 -4 10 3 6 8 10 11 10 2 0 4 -4 4 -10z m-2110 -30 c-24
-15 -37 -11 -16 5 11 8 22 12 25 9 3 -3 -1 -9 -9 -14z m950 0 c0 -5 -11 -10
-24 -10 -14 0 -28 5 -31 10 -4 6 7 10 24 10 17 0 31 -4 31 -10z m-195 -10
c-69 -30 -165 -67 -165 -63 0 5 103 52 140 63 34 11 50 11 25 0z m765 1 c0
-12 -42 -42 -49 -36 -5 6 29 45 41 45 4 0 8 -4 8 -9z m877 -7 c-3 -3 -12 -4
-19 -1 -8 3 -5 6 6 6 11 1 17 -2 13 -5z m-1047 -29 c-7 -8 -17 -15 -23 -15 -5
0 -2 9 8 20 21 23 35 19 15 -5z m-591 -39 c-2 -2 -119 -62 -259 -133 -140 -72
-282 -147 -315 -169 -33 -21 -135 -72 -226 -115 -92 -42 -177 -83 -190 -93
-13 -9 -30 -16 -39 -16 -8 0 1 10 22 23 20 12 64 41 97 65 34 24 98 59 144 78
45 19 123 57 172 84 125 69 426 217 510 251 63 26 95 35 84 25z m1186 -21 c39
-9 104 -21 145 -26 41 -6 109 -18 150 -28 41 -10 113 -24 160 -31 47 -7 130
-28 184 -46 55 -19 110 -34 122 -34 13 0 39 -9 59 -20 20 -11 48 -20 64 -20
15 0 63 -9 107 -21 43 -11 102 -27 129 -34 28 -7 84 -25 125 -40 62 -22 78
-24 97 -14 19 10 26 9 41 -4 10 -10 23 -17 28 -17 5 0 61 -26 124 -59 113 -57
115 -59 124 -100 8 -37 6 -45 -13 -64 l-22 -22 7 52 c4 36 3 58 -6 68 -18 22
-30 9 -30 -33 0 -20 -5 -44 -10 -52 -7 -11 -8 -5 -4 20 2 21 -1 41 -8 51 -15
18 -75 49 -96 49 -8 0 -39 8 -68 17 -30 9 -57 14 -60 10 -3 -3 -9 -21 -13 -39
-9 -45 -26 -37 -22 11 2 32 -2 42 -25 60 -15 11 -40 21 -57 21 -17 0 -40 9
-53 21 -28 26 -42 19 -36 -19 2 -16 -1 -33 -7 -36 -7 -5 -11 5 -11 27 0 19 -7
40 -15 47 -13 10 -17 7 -30 -21 -11 -27 -14 -29 -15 -12 -1 55 -40 78 -40 23
0 -43 -18 -37 -22 7 -2 27 -8 39 -20 41 -15 3 -18 -4 -18 -32 0 -20 -4 -36 -9
-36 -5 0 -9 13 -9 29 2 52 -28 73 -34 24 -4 -38 -22 -32 -28 9 -4 25 -10 33
-25 31 -11 -1 -24 5 -28 13 -14 25 -27 15 -27 -20 0 -19 -4 -38 -10 -41 -6 -4
-10 7 -10 27 0 18 -4 39 -9 47 -12 19 -31 4 -31 -25 0 -36 -18 -29 -22 8 -4
40 -37 54 -39 16 -1 -18 -3 -17 -10 10 -7 22 -16 32 -29 32 -11 0 -20 5 -20
10 0 21 -21 9 -32 -17 l-11 -28 -6 29 c-8 38 -27 44 -35 11 -8 -33 -24 -32
-28 2 -4 32 -28 44 -28 14 0 -12 -4 -21 -10 -21 -5 0 -10 14 -10 30 0 20 -5
30 -15 30 -10 0 -15 -10 -15 -31 0 -39 -23 -34 -30 6 -6 34 -30 46 -30 16 0
-12 -4 -21 -10 -21 -5 0 -10 11 -10 25 0 27 -17 34 -26 10 -9 -22 -24 -18 -24
5 0 24 -16 26 -28 3 -9 -14 -10 -14 -16 5 -8 23 -26 30 -26 10 0 -6 -7 -3 -15
8 -14 18 -16 18 -29 2 -17 -23 -26 -23 -26 2 0 25 -25 26 -39 3 -10 -16 -11
-16 -17 5 -4 14 -13 22 -23 20 -9 -1 -22 1 -30 6 -9 6 -18 3 -28 -9 -12 -18
-13 -18 -13 3 0 17 -6 22 -25 22 -14 0 -25 5 -25 10 0 21 -20 9 -26 -15 -8
-32 -24 -32 -24 -1 0 36 -17 41 -28 9 -6 -16 -11 -21 -11 -13 -1 8 -5 22 -11
30 -7 12 -12 12 -29 -4 -23 -21 -27 -15 -10 16 9 17 18 20 57 15 26 -3 79 -13
117 -22z m-776 1 c14 -17 -1 -30 -44 -40 -16 -4 -39 -9 -50 -12 -13 -4 -7 6
20 30 43 39 57 43 74 22z m-2216 -91 c35 -126 41 -159 28 -151 -15 10 -48 120
-56 191 -4 33 -5 58 -2 55 2 -3 16 -45 30 -95z m2654 89 c-3 -3 -12 -4 -19 -1
-8 3 -5 6 6 6 11 1 17 -2 13 -5z m-229 -29 c17 -13 26 -13 43 -4 12 6 35 8 52
5 18 -4 36 -1 45 6 13 11 14 10 6 -3 -5 -9 -23 -28 -40 -43 -27 -22 -33 -24
-44 -11 -13 16 -60 33 -140 51 l-55 12 55 1 c35 1 64 -5 78 -14z m1299 9 c-3
-3 -12 -4 -19 -1 -8 3 -5 6 6 6 11 1 17 -2 13 -5z m67 -10 c9 -3 16 -10 16
-15 0 -14 -26 -10 -40 6 -13 16 -3 20 24 9z m-2064 -59 c0 -2 -10 -9 -22 -15
-22 -11 -22 -10 -4 4 21 17 26 19 26 11z m1975 -15 c-3 -5 -10 -10 -16 -10 -5
0 -9 5 -9 10 0 6 7 10 16 10 8 0 12 -4 9 -10z m145 -19 c0 -13 -29 -35 -37
-28 -7 8 15 37 28 37 5 0 9 -4 9 -9z m-1590 -11 c0 -5 -5 -10 -11 -10 -5 0 -7
5 -4 10 3 6 8 10 11 10 2 0 4 -4 4 -10z m1670 -9 c0 -6 -4 -13 -10 -16 -5 -3
-10 1 -10 9 0 9 5 16 10 16 6 0 10 -4 10 -9z m197 3 c13 -4 21 -10 18 -14 -5
-8 -62 4 -73 15 -7 7 27 6 55 -1z m-2183 -30 c11 -27 7 -37 -9 -24 -16 14 -20
40 -6 40 5 0 12 -7 15 -16z m206 -14 c0 -5 -2 -10 -4 -10 -3 0 -8 5 -11 10 -3
6 -1 10 4 10 6 0 11 -4 11 -10z m1916 1 c5 -5 20 -11 34 -14 22 -4 22 -4 -6
-6 -16 0 -39 6 -50 14 -15 11 -16 14 -3 15 8 0 19 -4 25 -9z m194 -1 c0 -5 -2
-10 -4 -10 -3 0 -8 5 -11 10 -3 6 -1 10 4 10 6 0 11 -4 11 -10z m65 -20 c-3
-5 -10 -10 -16 -10 -5 0 -9 5 -9 10 0 6 7 10 16 10 8 0 12 -4 9 -10z m-3289
-15 c-11 -8 -27 -15 -36 -15 -9 0 -21 -5 -28 -12 -6 -6 -15 -9 -18 -5 -4 4 13
15 37 26 53 23 71 26 45 6z m3172 9 c32 -9 27 -26 -5 -18 -32 8 -55 24 -32 24
7 0 24 -3 37 -6z m177 -4 c19 -8 19 -9 -2 -9 -12 -1 -25 4 -28 9 -7 12 2 12
30 0z m-3460 -50 c-3 -5 -14 -10 -23 -9 -14 0 -13 2 3 9 27 11 27 11 20 0z
m2921 -37 c-11 -11 -19 6 -11 24 8 17 8 17 12 0 3 -10 2 -21 -1 -24z m639 -3
c-3 -5 -18 -9 -33 -9 l-27 1 30 8 c17 4 31 8 33 9 2 0 0 -3 -3 -9z m-258 -112
c-3 -8 -6 -5 -6 6 -1 11 2 17 5 13 3 -3 4 -12 1 -19z m145 -70 c-7 -7 -12 -8
-12 -2 0 14 12 26 19 19 2 -3 -1 -11 -7 -17z m55 0 c-3 -8 -6 -5 -6 6 -1 11 2
17 5 13 3 -3 4 -12 1 -19z m54 -22 c-6 -14 -15 -26 -20 -26 -5 0 -3 14 6 31
18 36 28 33 14 -5z m49 -16 c0 -11 -4 -20 -9 -20 -5 0 -7 9 -4 20 3 11 7 20 9
20 2 0 4 -9 4 -20z m-3820 -4 c0 -6 -93 -37 -97 -32 -2 2 15 11 39 19 47 17
58 19 58 13z m-360 -231 c0 -8 -4 -15 -10 -15 -5 0 -10 7 -10 15 0 8 5 15 10
15 6 0 10 -7 10 -15z"/>
<path d="M4347 3519 c-9 -5 -24 -23 -32 -39 -18 -34 -35 -39 -35 -10 0 26 -17
26 -25 0 -13 -40 28 -229 56 -262 11 -11 19 -25 19 -30 0 -4 5 -8 11 -8 13 0
8 51 -14 153 -10 45 -15 55 -25 45 -9 -9 -12 -9 -12 3 0 8 5 20 12 27 7 7 17
27 22 44 14 43 61 62 82 33 8 -10 14 -25 14 -32 0 -19 -27 -16 -35 5 -6 16 -7
16 -17 -1 -16 -30 -2 -50 30 -42 57 14 66 55 22 103 -22 24 -45 27 -73 11z"/>
<path d="M4027 3494 c-9 -9 2 -24 17 -24 7 0 21 7 32 15 18 14 17 14 -12 15
-17 0 -34 -3 -37 -6z"/>
<path d="M4483 3473 c-7 -2 -13 -9 -13 -15 0 -14 43 -6 48 10 4 12 -12 15 -35
5z"/>
<path d="M3992 3406 c-80 -92 -41 -174 52 -111 21 14 43 24 50 22 6 -2 -4 -12
-22 -21 -25 -13 -32 -22 -27 -34 4 -9 10 -38 12 -64 6 -53 14 -59 37 -26 14
19 14 24 1 38 -8 9 -15 28 -15 43 0 20 7 28 35 37 36 12 47 30 19 30 -14 0
-14 3 -4 15 7 8 19 15 26 15 8 0 14 -7 14 -15 0 -17 16 -20 25 -5 11 18 -15
77 -39 88 -13 5 -48 13 -78 17 -53 7 -55 6 -86 -29z m53 -6 c-3 -5 -11 -10
-16 -10 -6 0 -7 5 -4 10 3 6 11 10 16 10 6 0 7 -4 4 -10z m90 -20 c3 -6 -5
-10 -19 -10 -14 0 -28 5 -31 10 -3 6 5 10 19 10 14 0 28 -4 31 -10z m-65 -41
c0 -5 -8 -9 -17 -9 -29 0 -63 12 -58 19 6 10 75 1 75 -10z"/>
<path d="M4470 3380 c0 -5 7 -10 15 -10 8 0 15 5 15 10 0 6 -7 10 -15 10 -8 0
-15 -4 -15 -10z"/>
<path d="M3890 3369 c0 -6 -9 -8 -20 -4 -26 8 -26 -12 -1 -44 10 -13 23 -21
30 -17 14 9 15 76 1 76 -5 0 -10 -5 -10 -11z"/>
<path d="M4366 3303 c11 -128 56 -359 74 -377 13 -13 14 33 0 69 -5 14 -19 69
-29 123 -16 77 -18 108 -10 147 12 62 5 95 -20 95 -18 0 -19 -6 -15 -57z"/>
<path d="M3717 3322 c-42 -47 -64 -175 -34 -201 20 -16 115 34 129 68 l10 26
9 -23 c9 -24 20 -22 64 12 20 15 20 15 -2 16 -15 0 -28 10 -38 29 -18 35 -83
91 -106 91 -9 0 -23 -8 -32 -18z m63 -35 c10 -3 4 -9 -18 -17 -36 -14 -52 -36
-52 -75 0 -37 33 -30 40 9 4 25 7 27 18 14 17 -21 6 -46 -29 -64 -26 -13 -30
-13 -35 1 -18 45 23 167 49 147 7 -5 19 -12 27 -15z m40 -37 c0 -11 -7 -20
-15 -20 -15 0 -21 21 -8 33 12 13 23 7 23 -13z"/>
<path d="M3605 3263 l-7 -37 -18 24 c-10 14 -22 22 -25 18 -10 -10 3 -42 27
-68 20 -22 22 -22 35 -4 14 20 18 104 4 104 -5 0 -12 -17 -16 -37z"/>
<path d="M4187 3283 c-4 -3 -7 -22 -7 -40 0 -27 4 -34 18 -31 21 4 28 50 9 66
-8 7 -17 9 -20 5z"/>
<path d="M3374 3266 c-10 -8 -16 -17 -12 -21 8 -8 48 13 48 25 0 14 -13 12
-36 -4z"/>
<path d="M4480 3270 c0 -5 9 -10 19 -10 11 0 23 5 26 10 4 6 -5 10 -19 10 -14
0 -26 -4 -26 -10z"/>
<path d="M4115 3260 c-3 -5 -1 -10 4 -10 6 0 11 5 11 10 0 6 -2 10 -4 10 -3 0
-8 -4 -11 -10z"/>
<path d="M3274 3239 c-17 -20 -28 -96 -15 -103 12 -8 34 65 29 96 -2 18 -5 19
-14 7z"/>
<path d="M4507 3214 c-14 -14 -6 -24 19 -24 16 0 24 5 22 13 -5 14 -31 21 -41
11z"/>
<path d="M3480 3192 c-20 -17 -24 -30 -28 -105 -5 -101 4 -113 63 -78 20 12
42 21 49 21 13 0 76 61 76 73 0 4 -11 5 -24 1 -20 -5 -27 1 -47 37 -13 23 -33
48 -45 56 -18 12 -24 11 -44 -5z m50 -52 c0 -5 -9 -14 -20 -20 -22 -12 -27 -1
-8 18 14 14 28 16 28 2z m20 -39 c0 -5 -7 -11 -15 -15 -15 -5 -20 5 -8 17 9
10 23 9 23 -2z m0 -38 c-1 -5 -19 -20 -40 -35 -30 -21 -40 -24 -40 -13 0 9 15
24 33 35 34 21 47 25 47 13z"/>
<path d="M3932 3188 c-7 -7 -12 -25 -12 -40 0 -21 5 -28 20 -28 16 0 19 5 14
24 -3 13 -1 27 5 31 12 7 6 25 -8 25 -4 0 -12 -5 -19 -12z"/>
<path d="M3767 3114 c-16 -9 -27 -18 -24 -21 6 -5 67 24 67 32 0 8 -14 5 -43
-11z"/>
<path d="M3845 3100 c-3 -5 1 -10 9 -10 8 0 18 5 21 10 3 6 -1 10 -9 10 -8 0
-18 -4 -21 -10z"/>
<path d="M4015 3094 c-27 -8 -64 -18 -80 -23 -48 -12 -155 -63 -155 -72 0 -14
14 -11 100 26 46 19 119 42 164 51 44 9 85 20 91 25 14 14 -64 10 -120 -7z"/>
<path d="M3763 3063 c-14 -5 -18 -35 -6 -46 10 -11 33 13 33 34 0 19 -5 21
-27 12z"/>
<path d="M4085 3053 c-113 -24 -181 -49 -340 -128 -150 -75 -242 -139 -234
-164 3 -9 27 3 72 38 71 55 111 75 140 72 10 -1 17 4 17 14 0 10 28 28 76 50
118 54 166 67 412 111 12 3 22 9 22 14 0 14 -83 11 -165 -7z"/>
<path d="M3613 3038 c-4 -7 -19 -21 -33 -30 -49 -32 -93 -75 -84 -81 6 -3 35
14 66 38 30 23 64 45 74 47 10 2 19 10 19 18 0 19 -31 25 -42 8z"/>
<path d="M4533 3038 c2 -7 10 -13 17 -13 7 0 15 6 18 13 2 7 -5 12 -18 12 -13
0 -20 -5 -17 -12z"/>
<path d="M3704 2965 c-19 -14 -19 -14 2 -15 11 0 29 7 40 15 19 14 19 14 -2
15 -11 0 -29 -7 -40 -15z"/>
<path d="M4096 2944 c-38 -9 -130 -40 -205 -70 -74 -30 -143 -54 -152 -54 -10
0 -25 -7 -34 -16 -15 -15 -17 -15 -30 2 -13 18 -14 17 -21 -12 -4 -24 -21 -42
-65 -73 -54 -38 -73 -61 -51 -61 5 0 29 13 53 30 24 16 49 30 56 30 6 0 25 11
41 25 39 33 176 95 309 141 94 32 123 37 226 41 115 5 147 15 86 27 -50 10
-139 6 -213 -10z"/>
<path d="M3646 2931 c-3 -5 -30 -20 -60 -35 -52 -26 -84 -52 -74 -61 7 -7 148
85 148 96 0 11 -7 12 -14 0z"/>
<path d="M4057 2843 c-4 -3 -2 -12 3 -18 8 -9 6 -14 -5 -19 -23 -9 -18 -26 9
-26 17 0 26 7 30 25 4 14 4 30 1 35 -7 11 -29 13 -38 3z"/>
<path d="M3994 2786 l7 -44 -68 -22 c-114 -38 -225 -96 -296 -156 -37 -31 -66
-59 -63 -61 2 -2 45 25 97 59 101 69 237 128 309 136 25 2 52 10 60 17 30 24
100 35 224 35 119 0 161 11 98 25 -29 6 -270 -10 -309 -21 -20 -5 -23 -2 -29
35 -4 27 -12 41 -21 41 -12 0 -14 -9 -9 -44z"/>
<path d="M3430 2765 c0 -8 5 -15 10 -15 6 0 10 7 10 15 0 8 -4 15 -10 15 -5 0
-10 -7 -10 -15z"/>
<path d="M4440 2742 c0 -12 24 -22 52 -22 11 0 18 5 16 13 -5 14 -68 23 -68 9z"/>
<path d="M4490 2650 c-11 -7 -3 -10 28 -10 26 0 41 4 37 10 -8 13 -45 13 -65
0z"/>
<path d="M4050 2609 c0 -11 4 -29 10 -39 8 -15 13 -16 35 -7 32 15 32 35 0 43
-14 3 -25 10 -25 15 0 5 -4 9 -10 9 -5 0 -10 -9 -10 -21z"/>
<path d="M4532 2601 c-20 -12 23 -22 62 -14 26 5 27 7 11 14 -27 10 -57 10
-73 0z"/>
<path d="M4448 2583 c6 -2 18 -2 25 0 6 3 1 5 -13 5 -14 0 -19 -2 -12 -5z"/>
<path d="M4260 2574 c-8 -2 -32 -5 -52 -9 -64 -10 -42 -23 50 -29 48 -3 103
-7 122 -8 45 -4 49 23 5 33 -39 9 -106 16 -125 13z"/>
<path d="M3880 2558 c-14 -6 -60 -29 -104 -50 -60 -29 -82 -36 -92 -27 -21 17
-44 3 -44 -28 0 -14 -10 -37 -22 -50 -30 -32 -9 -29 40 6 47 35 180 103 234
120 20 7 42 19 48 27 10 11 8 14 -11 13 -13 0 -35 -5 -49 -11z"/>
<path d="M4465 2550 c-4 -6 28 -10 89 -10 57 0 96 4 96 10 0 6 -36 10 -89 10
-50 0 -93 -4 -96 -10z"/>
<path d="M4027 2520 c-60 -25 -98 -50 -92 -60 5 -9 172 54 190 71 17 16 -48 9
-98 -11z"/>
<path d="M4522 2512 c-36 -11 -29 -26 14 -34 54 -9 166 2 161 16 -7 21 -122
32 -175 18z"/>
<path d="M4590 2453 c-49 -9 -45 -23 8 -23 28 0 70 -7 92 -16 23 -9 43 -14 47
-11 7 8 -58 47 -79 47 -9 0 -22 2 -30 4 -7 2 -24 1 -38 -1z"/>
<path d="M3835 2422 c-95 -52 -223 -151 -197 -152 18 0 66 25 81 44 7 8 52 38
102 67 83 49 106 69 77 69 -7 0 -35 -13 -63 -28z"/>
<path d="M3980 2426 c0 -11 9 -16 26 -16 31 0 28 23 -4 28 -15 2 -22 -2 -22
-12z"/>
<path d="M4181 2431 c-14 -4 -27 -13 -29 -20 -4 -11 4 -12 34 -6 45 8 54 12
54 26 0 10 -23 10 -59 0z"/>
<path d="M4394 2395 c10 -8 23 -12 28 -9 14 9 -2 24 -25 24 -21 -1 -21 -1 -3
-15z"/>
<path d="M4570 2370 c0 -7 21 -9 63 -4 83 9 85 14 4 14 -40 0 -67 -4 -67 -10z"/>
<path d="M4750 2369 c0 -10 40 -32 47 -25 3 2 2 9 -1 14 -8 13 -46 22 -46 11z"/>
<path d="M3981 2325 c-86 -38 -257 -155 -226 -155 25 0 81 29 113 59 20 18 66
46 101 60 36 15 67 33 69 39 5 16 -15 15 -57 -3z"/>
<path d="M4210 2320 c0 -5 24 -10 53 -10 37 0 48 3 37 10 -20 13 -90 13 -90 0z"/>
<path d="M4616 2321 c-4 -6 -18 -11 -32 -11 -15 0 -24 -6 -24 -15 0 -8 -4 -15
-10 -15 -5 0 -10 -7 -10 -15 0 -25 37 -17 70 16 31 32 31 32 113 26 59 -5 77
-3 64 4 -27 16 -163 24 -171 10z"/>
<path d="M4350 2310 c0 -5 12 -10 26 -10 14 0 23 4 19 10 -3 6 -15 10 -26 10
-10 0 -19 -4 -19 -10z"/>
<path d="M4450 2300 c0 -5 18 -10 40 -10 22 0 40 5 40 10 0 6 -18 10 -40 10
-22 0 -40 -4 -40 -10z"/>
<path d="M4670 2260 c0 -5 7 -10 15 -10 8 0 15 5 15 10 0 6 -7 10 -15 10 -8 0
-15 -4 -15 -10z"/>
<path d="M4755 2260 c3 -5 20 -10 36 -10 18 0 28 4 24 10 -3 6 -20 10 -36 10
-18 0 -28 -4 -24 -10z"/>
<path d="M4610 2250 c0 -13 28 -25 38 -16 3 4 0 11 -8 16 -20 13 -30 12 -30 0z"/>
<path d="M3935 2166 c-124 -63 -190 -102 -205 -121 -23 -27 15 -17 66 18 84
57 177 110 218 122 22 7 42 17 44 23 7 21 -20 11 -123 -42z"/>
<path d="M4790 2200 c0 -5 5 -10 10 -10 6 0 10 5 10 10 0 6 -4 10 -10 10 -5 0
-10 -4 -10 -10z"/>
<path d="M4165 2176 c-76 -28 -126 -55 -103 -56 9 0 40 9 70 19 29 11 74 23
101 26 26 3 47 10 47 16 0 5 -6 9 -14 9 -8 0 -20 2 -28 4 -7 3 -40 -5 -73 -18z"/>
<path d="M4295 2161 c-11 -5 -32 -10 -46 -10 -14 -1 -33 -7 -43 -14 -15 -11
15 -13 182 -13 111 1 198 4 194 8 -21 21 -254 44 -287 29z"/>
<path d="M4705 2150 c-3 -5 3 -10 14 -10 12 0 21 5 21 10 0 6 -6 10 -14 10 -8
0 -18 -4 -21 -10z"/>
<path d="M4800 2120 c0 -13 28 -25 38 -16 3 4 0 11 -8 16 -20 13 -30 12 -30 0z"/>
<path d="M3933 2081 c-68 -33 -171 -99 -192 -125 -9 -11 -11 -20 -5 -26 9 -9
128 65 143 89 3 4 34 23 69 40 34 17 62 36 62 41 0 15 -9 13 -77 -19z"/>
<path d="M4315 2086 c-28 -12 -21 -13 85 -12 63 0 152 -5 198 -13 45 -7 85
-11 88 -8 3 3 -18 13 -48 22 -73 23 -282 30 -323 11z"/>
<path d="M4405 2040 c-4 -6 7 -10 24 -10 17 0 31 5 31 10 0 6 -11 10 -24 10
-14 0 -28 -4 -31 -10z"/>
<path d="M4492 2039 c3 -8 20 -17 39 -20 19 -4 82 -17 142 -29 157 -33 158
-11 2 28 -118 30 -189 38 -183 21z"/>
<path d="M3887 2007 c-64 -50 -101 -86 -90 -87 12 0 133 96 133 105 0 10 -16
3 -43 -18z"/>
<path d="M4005 2020 c-3 -5 -1 -10 4 -10 6 0 11 5 11 10 0 6 -2 10 -4 10 -3 0
-8 -4 -11 -10z"/>
<path d="M3954 1985 c-17 -13 -17 -14 -2 -15 9 0 20 5 23 11 11 17 0 20 -21 4z"/>
<path d="M4605 1960 c3 -5 13 -10 21 -10 8 0 32 -9 54 -20 45 -23 50 -24 50
-10 0 6 -19 20 -42 30 -46 21 -93 26 -83 10z"/>
<path d="M3687 1893 c-20 -14 -37 -30 -37 -35 0 -11 50 23 70 47 18 21 10 19
-33 -12z"/>
<path d="M3707 1856 c-20 -18 -37 -37 -37 -41 0 -9 50 28 74 54 30 34 3 24
-37 -13z"/>
<path d="M3768 1841 c-29 -27 -50 -52 -46 -56 4 -4 33 18 65 49 71 68 55 75
-19 7z"/>
<path d="M2473 3503 c-7 -2 -13 -9 -13 -14 0 -15 53 -6 58 9 4 12 -21 15 -45
5z"/>
<path d="M2538 3463 c-21 -5 -24 -23 -4 -23 22 0 46 11 46 21 0 9 -13 10 -42
2z"/>
<path d="M1990 3430 c0 -5 7 -7 15 -4 8 4 15 8 15 10 0 2 -7 4 -15 4 -8 0 -15
-4 -15 -10z"/>
<path d="M2077 3396 c-48 -13 -71 -26 -47 -26 20 0 94 22 105 32 12 11 1 10
-58 -6z"/>
<path d="M2163 3380 c-29 -10 -65 -25 -80 -34 -16 -8 -68 -27 -118 -42 -56
-17 -82 -29 -68 -32 12 -2 50 8 85 21 222 86 258 100 258 103 0 8 -26 2 -77
-16z"/>
<path d="M2331 3370 c-52 -19 -87 -40 -66 -40 13 0 145 51 145 56 0 8 -26 3
-79 -16z"/>
<path d="M1740 3360 c0 -5 7 -10 15 -10 8 0 15 5 15 10 0 6 -7 10 -15 10 -8 0
-15 -4 -15 -10z"/>
<path d="M1940 3350 c-13 -9 -13 -10 0 -10 8 0 22 5 30 10 13 9 13 10 0 10 -8
0 -22 -5 -30 -10z"/>
<path d="M2658 3334 c-42 -12 -12 -24 59 -24 53 0 74 3 67 10 -12 12 -100 21
-126 14z"/>
<path d="M1820 3321 c-16 -4 -21 -9 -13 -14 7 -4 27 -1 45 7 35 15 15 20 -32
7z"/>
<path d="M2088 3292 c-78 -28 -104 -42 -75 -42 20 0 207 59 207 65 0 12 -62 1
-132 -23z"/>
<path d="M1695 3280 c3 -5 12 -7 20 -3 21 7 19 13 -6 13 -11 0 -18 -4 -14 -10z"/>
<path d="M2708 3273 c-41 -16 -53 -39 -15 -29 12 3 42 9 67 12 91 11 110 15
105 25 -10 14 -116 10 -157 -8z"/>
<path d="M1215 3270 c4 -6 24 -19 46 -31 41 -21 144 -29 169 -14 21 13 -10 25
-68 25 -29 0 -69 7 -89 15 -41 17 -67 19 -58 5z"/>
<path d="M2540 3260 c-12 -8 -11 -10 8 -10 12 0 22 5 22 10 0 13 -11 13 -30 0z"/>
<path d="M1923 3240 c-13 -5 -23 -11 -23 -14 0 -7 40 6 46 15 6 10 6 10 -23
-1z"/>
<path d="M2105 3232 c-27 -10 -105 -40 -173 -67 -113 -46 -120 -50 -87 -53 26
-2 63 8 120 32 45 20 119 47 164 62 44 14 81 30 81 35 0 14 -51 10 -105 -9z"/>
<path d="M2726 3233 c-51 -19 -82 -53 -35 -39 13 4 55 11 93 16 69 10 84 15
73 26 -14 14 -86 13 -131 -3z"/>
<path d="M1203 3209 c-10 -10 -5 -15 25 -26 41 -14 122 -18 122 -5 0 5 -21 14
-47 20 -27 6 -57 14 -68 17 -11 3 -26 0 -32 -6z"/>
<path d="M2255 3200 c-137 -35 -375 -135 -375 -156 0 -15 4 -14 126 40 148 65
259 97 358 103 109 6 127 10 106 23 -24 16 -140 10 -215 -10z"/>
<path d="M2713 3153 c-44 -15 -60 -39 -20 -30 12 3 49 11 82 17 33 7 64 17 70
21 15 15 -87 9 -132 -8z"/>
<path d="M1222 3119 c2 -8 30 -23 62 -34 32 -11 62 -27 67 -36 10 -20 75 -208
118 -345 32 -103 53 -145 67 -131 4 4 2 13 -4 19 -7 7 -12 16 -12 22 0 6 5 5
12 -2 16 -16 40 -15 64 3 15 12 16 16 6 23 -14 10 -25 125 -11 116 5 -3 13
-23 19 -44 6 -22 15 -40 20 -40 6 0 10 -9 10 -20 0 -17 7 -20 39 -20 22 0 52
5 66 10 20 8 26 7 23 -2 -4 -12 -32 -20 -148 -45 -33 -8 -42 -31 -10 -26 224
35 221 34 214 77 -4 20 -4 20 7 -1 7 -13 16 -23 20 -23 18 0 18 22 0 57 -10
21 -27 64 -36 96 -20 68 -31 78 -40 35 l-7 -32 -14 25 c-16 30 -20 95 -3 66
12 -21 29 -13 29 14 0 36 -60 175 -85 199 -25 23 -26 23 -120 10 -100 -13
-160 -9 -254 17 -97 26 -104 27 -99 12z m472 -89 c9 -22 16 -53 16 -68 l-1
-27 -14 33 c-21 49 -34 102 -25 102 4 0 15 -18 24 -40z m-186 14 c10 -3 10 -9
2 -24 -14 -25 -24 -25 -48 1 -18 19 -21 19 -36 4 -9 -9 -16 -21 -16 -27 0 -6
-6 -6 -15 2 -8 7 -15 22 -15 35 0 20 4 21 58 18 31 -3 63 -6 70 -9z m121 7
c22 -14 9 -30 -17 -20 -13 5 -20 13 -17 19 8 12 16 12 34 1z m-39 -69 c0 -7
-4 -10 -10 -7 -5 3 -10 16 -10 28 0 18 2 19 10 7 5 -8 10 -21 10 -28z m-137
-23 c15 -49 14 -79 -2 -79 -10 0 -31 70 -31 104 0 43 17 30 33 -25z m90 -1
c-10 -11 -19 -15 -21 -8 -5 15 18 41 30 34 5 -3 1 -15 -9 -26z m153 -75 c14
-36 15 -48 5 -67 -10 -19 -9 -33 8 -86 25 -77 25 -70 0 -70 -18 0 -20 2 -9 15
21 25 -18 71 -56 66 l-29 -3 28 26 c15 14 27 32 27 41 0 8 5 15 10 15 14 0 13
43 -2 74 -6 14 -22 33 -35 41 -12 9 -23 23 -23 32 0 28 58 -35 76 -84z m-76
15 c0 -4 -9 -8 -21 -8 -11 0 -18 4 -15 9 4 5 1 11 -6 13 -6 2 -8 10 -4 17 6 9
12 8 27 -5 10 -9 19 -21 19 -26z m-87 -100 c-2 -4 -10 -5 -18 -1 -10 3 -15 20
-14 52 l0 46 18 -45 c10 -25 16 -48 14 -52z m14 50 c-3 -8 -6 -5 -6 6 -1 11 2
17 5 13 3 -3 4 -12 1 -19z m87 -37 c3 -5 -1 -14 -10 -22 -13 -10 -19 -9 -37 9
l-21 22 31 0 c18 0 34 -4 37 -9z m-144 -51 c6 -20 6 -30 1 -24 -11 10 -27 72
-17 63 4 -4 11 -21 16 -39z m250 10 c0 -11 -4 -20 -10 -20 -5 0 -10 9 -10 20
0 11 5 20 10 20 6 0 10 -9 10 -20z m-194 -98 c-12 -12 -18 8 -10 35 l8 28 4
-28 c2 -16 1 -31 -2 -35z m224 9 c0 -6 -4 -13 -10 -16 -5 -3 -10 1 -10 9 0 9
5 16 10 16 6 0 10 -4 10 -9z"/>
<path d="M1770 3108 c0 -13 7 -33 15 -44 8 -10 15 -31 15 -46 0 -16 5 -28 10
-28 13 0 12 24 -3 84 -14 53 -37 74 -37 34z"/>
<path d="M2759 3094 c-26 -7 -52 -21 -59 -29 -15 -18 -15 -18 57 -1 32 8 71
17 86 20 15 4 25 11 22 16 -8 14 -51 11 -106 -6z"/>
<path d="M2466 3069 c-67 -10 -201 -45 -225 -59 -29 -17 12 -12 96 12 55 15
108 22 180 22 102 1 131 9 103 26 -18 11 -72 11 -154 -1z"/>
<path d="M1260 3032 c0 -12 24 -22 52 -22 11 0 18 5 16 13 -5 14 -68 23 -68 9z"/>
<path d="M2750 3013 c-26 -12 -31 -17 -18 -20 25 -6 128 16 128 28 0 15 -72
10 -110 -8z"/>
<path d="M1990 2990 c-8 -5 -38 -17 -67 -25 -51 -15 -79 -35 -48 -35 18 0 136
48 150 61 12 12 -16 11 -35 -1z"/>
<path d="M2106 2970 c-63 -20 -94 -40 -60 -40 30 1 128 37 132 49 5 14 -2 13
-72 -9z"/>
<path d="M1292 2958 c5 -15 78 -24 78 -10 0 13 -25 22 -57 22 -15 0 -23 -5
-21 -12z"/>
<path d="M2211 2918 c8 -27 6 -35 -7 -43 -50 -31 -51 -34 -4 -35 76 0 87 23
39 84 -28 35 -40 33 -28 -6z"/>
<path d="M2515 2940 c-10 -17 12 -37 25 -24 8 8 6 15 -4 23 -10 9 -16 9 -21 1z"/>
<path d="M2764 2936 c-10 -8 -16 -17 -13 -20 7 -7 69 12 84 25 16 15 -50 10
-71 -5z"/>
<path d="M1943 2909 c-52 -20 -70 -39 -35 -39 22 1 98 35 106 49 10 16 -12 13
-71 -10z"/>
<path d="M2540 2894 c-103 -16 -159 -31 -255 -69 -60 -23 -128 -48 -150 -55
-51 -16 -67 -30 -33 -30 14 0 71 18 127 40 55 22 103 40 105 40 2 0 26 10 53
21 26 12 73 23 103 24 78 3 141 15 134 26 -5 9 -35 10 -84 3z"/>
<path d="M2300 2880 c0 -5 5 -10 10 -10 6 0 10 5 10 10 0 6 -4 10 -10 10 -5 0
-10 -4 -10 -10z"/>
<path d="M2784 2866 c-10 -8 -17 -16 -14 -19 9 -7 70 13 70 23 0 15 -33 12
-56 -4z"/>
<path d="M1330 2854 c0 -10 7 -14 22 -12 32 5 35 28 4 28 -17 0 -26 -5 -26
-16z"/>
<path d="M2090 2830 c0 -5 4 -10 9 -10 6 0 13 5 16 10 3 6 -1 10 -9 10 -9 0
-16 -4 -16 -10z"/>
<path d="M1995 2803 c-43 -15 -79 -43 -57 -43 7 0 30 9 52 20 22 11 46 20 54
20 8 0 18 5 21 10 8 14 -22 11 -70 -7z"/>
<path d="M2797 2783 c-13 -12 -7 -23 12 -23 26 0 35 16 15 24 -19 7 -19 7 -27
-1z"/>
<path d="M1376 2755 c4 -8 12 -15 20 -15 8 0 14 7 14 15 0 8 -9 15 -20 15 -13
0 -18 -5 -14 -15z"/>
<path d="M2692 2733 c4 -22 38 -30 38 -10 0 8 -7 18 -16 21 -23 9 -26 8 -22
-11z"/>
<path d="M2632 2726 c1 -10 8 -17 13 -17 15 1 12 24 -3 29 -9 3 -13 -2 -10
-12z"/>
<path d="M1994 2716 c-32 -14 -53 -36 -35 -36 17 0 81 33 81 42 0 11 -9 10
-46 -6z"/>
<path d="M2515 2700 c3 -5 10 -10 16 -10 5 0 9 5 9 10 0 6 -7 10 -16 10 -8 0
-12 -4 -9 -10z"/>
<path d="M2460 2661 c0 -17 5 -31 10 -31 6 0 10 11 10 24 0 14 -4 28 -10 31
-6 4 -10 -7 -10 -24z"/>
<path d="M2562 2668 c2 -8 -8 -14 -24 -16 -40 -5 -34 -20 12 -32 40 -11 61
-44 45 -69 -19 -32 -95 7 -95 49 0 11 -5 20 -10 20 -6 0 -10 -16 -8 -37 l3
-38 -40 0 c-22 0 -51 -8 -65 -17 -35 -23 -158 -68 -184 -67 -11 0 -15 3 -8 6
20 8 14 31 -13 49 -32 21 -40 13 -40 -39 l0 -42 -75 -38 c-41 -21 -76 -42 -78
-48 -5 -13 7 -11 52 10 184 87 474 176 548 169 26 -2 33 -8 40 -35 10 -40 35
-43 62 -6 23 31 12 76 -19 81 -16 3 -18 1 -7 -9 18 -19 15 -39 -7 -39 -14 0
-20 10 -25 43 -8 50 -36 109 -54 115 -7 2 -11 -2 -10 -10z"/>
<path d="M2205 2645 c-92 -25 -159 -51 -163 -63 -6 -20 36 -13 89 13 38 20 76
28 162 36 62 6 116 15 122 20 14 14 -153 10 -210 -6z"/>
<path d="M2528 2583 c6 -2 18 -2 25 0 6 3 1 5 -13 5 -14 0 -19 -2 -12 -5z"/>
<path d="M1853 2565 c-37 -16 -218 -39 -240 -31 -16 6 -43 -15 -43 -34 0 -8
10 -10 28 -6 15 3 77 11 137 17 146 14 170 20 170 44 0 24 -13 27 -52 10z"/>
<path d="M2760 2555 c-9 -11 -10 -19 -3 -26 7 -7 14 -5 23 6 9 11 10 19 3 26
-7 7 -14 5 -23 -6z"/>
<path d="M1726 2461 c-38 -25 -55 -57 -55 -101 0 -34 1 -34 11 -10 34 82 44
86 64 29 8 -22 13 -27 13 -14 1 11 -5 32 -13 47 -16 29 -12 38 16 38 10 0 27
5 37 12 26 16 68 -12 87 -58 8 -19 19 -32 24 -29 17 11 11 64 -10 85 -28 28
-132 28 -174 1z"/>
<path d="M1617 2456 c-6 -15 -14 -17 -53 -11 -39 6 -45 4 -42 -10 3 -16 35
-38 69 -48 14 -5 65 -146 99 -274 6 -24 15 -43 21 -43 15 0 23 30 10 43 -18
18 -13 27 19 38 17 6 30 17 30 25 0 21 -29 29 -51 15 -15 -9 -19 -8 -19 4 0 8
18 24 41 35 36 19 40 25 37 52 -2 25 -10 34 -35 45 -32 13 -33 12 -41 -20 -10
-37 -7 -46 10 -29 7 7 20 12 30 12 25 0 11 -29 -18 -36 -13 -3 -24 -10 -24
-15 0 -5 -4 -9 -9 -9 -10 0 -30 53 -50 128 -7 25 -18 42 -27 42 -12 0 -12 3 2
25 9 13 14 30 12 37 -3 7 -7 5 -11 -6z"/>
<path d="M1935 2449 c-4 -6 -5 -13 -2 -16 7 -7 27 6 27 18 0 12 -17 12 -25 -2z"/>
<path d="M1790 2390 c0 -37 5 -55 20 -70 23 -23 33 -24 61 -10 29 16 23 33 -9
25 -38 -8 -60 15 -37 39 15 14 15 18 -2 41 -26 36 -33 31 -33 -25z"/>
<path d="M2765 2390 c3 -5 13 -10 21 -10 8 0 14 5 14 10 0 6 -9 10 -21 10 -11
0 -17 -4 -14 -10z"/>
<path d="M2420 2327 l-35 -11 34 -4 c42 -4 84 5 76 18 -8 12 -30 11 -75 -3z"/>
<path d="M2304 2295 c-19 -14 -19 -14 2 -15 11 0 29 7 40 15 19 14 19 14 -2
15 -11 0 -29 -7 -40 -15z"/>
<path d="M2642 2299 c-126 -15 -121 -29 8 -23 63 4 154 7 203 8 86 1 108 8 65
20 -31 8 -187 5 -276 -5z"/>
<path d="M2205 2265 c-16 -7 -23 -14 -15 -14 8 0 29 6 45 14 17 7 23 14 15 14
-8 0 -28 -6 -45 -14z"/>
<path d="M2962 2268 c6 -17 36 -34 45 -24 4 4 -1 14 -11 22 -24 17 -39 18 -34
2z"/>
<path d="M2054 2240 c-5 -24 -15 -32 -53 -46 -49 -18 -86 -44 -63 -44 7 0 27
7 45 17 18 9 53 17 80 19 66 3 62 -20 -8 -52 -88 -41 -85 -58 5 -28 68 22 83
40 67 84 -29 80 -63 103 -73 50z"/>
<path d="M2378 2246 c-68 -15 -118 -35 -118 -47 0 -5 3 -9 6 -9 17 0 210 55
219 62 13 11 -39 8 -107 -6z"/>
<path d="M2132 2233 c32 -67 44 -78 73 -67 20 8 19 24 -1 24 -9 0 -25 11 -36
25 -18 23 -45 36 -36 18z"/>
<path d="M2970 2160 c0 -5 7 -10 16 -10 8 0 12 5 9 10 -3 6 -10 10 -16 10 -5
0 -9 -4 -9 -10z"/>
<path d="M2950 2090 c0 -5 5 -10 10 -10 6 0 10 5 10 10 0 6 -4 10 -10 10 -5 0
-10 -4 -10 -10z"/>
<path d="M2590 2075 c-174 -25 -340 -66 -340 -86 0 -13 7 -12 96 15 123 37
256 56 385 56 109 0 152 9 113 24 -25 10 -151 5 -254 -9z"/>
<path d="M1750 2048 c0 -17 9 -64 20 -102 11 -39 19 -84 17 -101 -1 -21 3 -30
16 -33 23 -5 22 24 -3 130 -11 46 -20 95 -20 111 0 17 -5 27 -15 27 -10 0 -15
-10 -15 -32z"/>
<path d="M2210 2052 c0 -5 7 -17 15 -28 14 -18 14 -18 15 9 0 17 -5 27 -15 27
-8 0 -15 -4 -15 -8z"/>
<path d="M2765 2031 c-14 -7 1 -10 55 -10 41 -1 93 -4 115 -7 33 -5 38 -4 28
6 -15 16 -169 24 -198 11z"/>
<path d="M2521 1994 c-58 -12 -105 -34 -74 -34 19 0 193 41 193 46 0 8 -55 2
-119 -12z"/>
<path d="M1710 1968 c0 -39 24 -68 41 -51 7 7 2 22 -15 48 l-26 38 0 -35z"/>
<path d="M2916 1962 c-9 -15 1 -19 69 -27 57 -7 59 -6 44 10 -20 20 -103 32
-113 17z"/>
<path d="M2255 1918 c-91 -31 -114 -43 -103 -54 6 -6 185 57 218 76 34 20 -27
9 -115 -22z"/>
<path d="M2080 1918 c-19 -11 -30 -23 -23 -25 13 -5 68 21 78 37 11 17 -18 11
-55 -12z"/>
<path d="M2673 1893 c-13 -2 -23 -9 -23 -14 0 -15 63 -6 68 9 4 12 -4 13 -45
5z"/>
<path d="M2973 1887 c5 -15 37 -22 37 -9 0 5 -9 12 -21 15 -13 3 -19 1 -16 -6z"/>
<path d="M2365 1816 c-110 -36 -165 -61 -165 -76 0 -15 8 -13 108 30 51 22
113 45 139 50 25 6 53 15 62 20 37 22 -49 8 -144 -24z"/>
<path d="M2823 1834 c5 -5 32 -14 60 -20 29 -6 67 -15 86 -19 26 -6 33 -5 29
5 -2 8 -16 17 -30 21 -46 12 -153 22 -145 13z"/>
<path d="M2550 1780 c-13 -9 -13 -10 0 -9 8 0 24 4 35 9 l20 9 -20 0 c-11 0
-27 -4 -35 -9z"/>
<path d="M2324 1696 c-50 -23 -77 -46 -54 -46 11 0 120 59 120 66 0 8 -16 3
-66 -20z"/>
<path d="M2990 1700 c0 -5 3 -10 8 -10 4 -1 26 -5 50 -9 46 -9 65 2 33 18 -25
14 -91 14 -91 1z"/>
<path d="M2520 1640 c0 -11 5 -20 10 -20 6 0 10 9 10 20 0 11 -4 20 -10 20 -5
0 -10 -9 -10 -20z"/>
<path d="M2440 1584 c0 -34 4 -53 10 -49 6 3 10 28 10 56 0 27 -4 49 -10 49
-5 0 -10 -25 -10 -56z"/>
<path d="M2380 1553 c0 -41 3 -54 10 -43 13 20 13 87 0 95 -6 4 -10 -16 -10
-52z"/>
<path d="M2318 1543 c-1 -5 -2 -27 -2 -50 -1 -44 7 -56 18 -27 10 25 7 84 -4
84 -5 0 -11 -3 -12 -7z"/>
<path d="M2276 1521 c-4 -7 -5 -15 -2 -18 9 -9 19 4 14 18 -4 11 -6 11 -12 0z"/>
<path d="M1551 1554 c-81 -37 -53 -51 40 -19 41 14 75 25 77 25 1 0 2 5 2 10
0 18 -63 9 -119 -16z"/>
<path d="M1645 1509 c-44 -11 -90 -17 -102 -14 -19 4 -23 1 -23 -19 0 -14 3
-27 8 -29 11 -7 222 63 222 74 0 12 -11 11 -105 -12z"/>
<path d="M1675 1439 c-60 -16 -120 -29 -132 -29 -14 0 -23 -6 -23 -15 0 -21
45 -19 140 5 79 20 170 55 170 65 0 10 -47 3 -155 -26z"/>
<path d="M1835 1396 c-16 -7 -86 -32 -155 -55 -129 -44 -163 -61 -119 -61 63
0 319 96 319 120 0 13 -8 12 -45 -4z"/>
<path d="M1651 1364 c0 -11 3 -14 6 -6 3 7 2 16 -1 19 -3 4 -6 -2 -5 -13z"/>
<path d="M1600 1349 c0 -5 5 -7 10 -4 6 3 10 8 10 11 0 2 -4 4 -10 4 -5 0 -10
-5 -10 -11z"/>
<path d="M1757 1270 c-32 -15 -67 -30 -77 -33 -23 -6 -27 -27 -5 -27 20 0 165
72 165 82 0 14 -23 8 -83 -22z"/>
<path d="M890 1562 c0 -12 7 -25 15 -29 27 -10 30 6 7 30 l-22 21 0 -22z"/>
<path d="M880 1470 c-12 -8 -12 -10 3 -16 22 -8 50 3 42 16 -8 12 -25 13 -45
0z"/>
<path d="M889 1419 c-11 -6 -11 -11 -2 -20 12 -12 43 -6 43 10 0 14 -25 20
-41 10z"/>
<path d="M897 1354 c-4 -4 -2 -13 3 -20 13 -14 52 -6 47 10 -4 13 -40 20 -50
10z"/>
<path d="M944 1148 c-4 -6 3 -19 15 -29 16 -13 21 -25 16 -39 -5 -14 -2 -20 9
-20 12 0 16 10 16 34 0 48 -38 84 -56 54z"/>
<path d="M3293 2550 c-38 -23 -41 -30 -14 -30 24 0 84 49 61 50 -8 0 -30 -9
-47 -20z"/>
<path d="M3301 2492 c-12 -22 0 -84 17 -90 14 -4 32 38 32 79 0 22 -5 29 -20
29 -10 0 -24 -8 -29 -18z"/>
<path d="M3370 2176 c0 -8 5 -18 10 -21 6 -3 10 3 10 14 0 12 -4 21 -10 21 -5
0 -10 -6 -10 -14z"/>
<path d="M3350 1015 c0 -17 23 -30 66 -38 38 -7 47 -1 33 25 -7 13 -17 18 -31
15 -11 -3 -31 -2 -44 3 -18 7 -24 6 -24 -5z"/>
</g>
</svg>
